inDegrees=no
num_controls=7
num_derivatives=13
num_iterations=290
num_multipliers=7
num_parameters=0
num_slacks=7
num_states=26
objective=0.460949
objective_accelerations=0.000000
objective_balance=0.003350
objective_effort=0.034295
objective_height=0.314983
objective_ligament=0.108322
solver_duration=4157.456093
status=Solve_Succeeded
success=true
DataType=double
version=3
OpenSimVersion=4.5
endheader
time	/jointset/ground_pelvis/pelvis_tilt/value	/jointset/ground_pelvis/pelvis_tx/value	/jointset/ground_pelvis/pelvis_ty/value	/jointset/hip_l/hip_flexion_l/value	/jointset/hip_l/hip_adduction_l/value	/jointset/hip_l/hip_rotation_l/value	/jointset/back/lumbar_extension/value	/jointset/patellofemoral_l/patellar_flexion_l/value	/jointset/knee_l/knee_flexion_l/value	/jointset/knee_l/knee_adduction_l/value	/jointset/knee_l/knee_rotation_l/value	/jointset/ankle_l/ankle_angle_l/value	/jointset/subtalar_l/subtalar_angle_l/value	/jointset/ground_pelvis/pelvis_tilt/speed	/jointset/ground_pelvis/pelvis_tx/speed	/jointset/ground_pelvis/pelvis_ty/speed	/jointset/hip_l/hip_flexion_l/speed	/jointset/hip_l/hip_adduction_l/speed	/jointset/hip_l/hip_rotation_l/speed	/jointset/back/lumbar_extension/speed	/jointset/patellofemoral_l/patellar_flexion_l/speed	/jointset/knee_l/knee_flexion_l/speed	/jointset/knee_l/knee_adduction_l/speed	/jointset/knee_l/knee_rotation_l/speed	/jointset/ankle_l/ankle_angle_l/speed	/jointset/subtalar_l/subtalar_angle_l/speed	/forceset/tau_hip_flexion_l	/forceset/tau_hip_adduction_l	/forceset/tau_hip_rotation_l	/forceset/tau_knee_flexion_l	/forceset/tau_ankle_angle_l	/forceset/tau_subtalar_angle_l	/forceset/tau_lumbar_extension	lambda_cid13_p0	lambda_cid13_p1	lambda_cid13_p2	lambda_cid13_p3	lambda_cid13_p4	lambda_cid13_p5	lambda_cid14_p0	/jointset/ground_pelvis/pelvis_tilt/accel	/jointset/ground_pelvis/pelvis_tx/accel	/jointset/ground_pelvis/pelvis_ty/accel	/jointset/hip_l/hip_flexion_l/accel	/jointset/hip_l/hip_adduction_l/accel	/jointset/hip_l/hip_rotation_l/accel	/jointset/back/lumbar_extension/accel	/jointset/patellofemoral_l/patellar_flexion_l/accel	/jointset/knee_l/knee_flexion_l/accel	/jointset/knee_l/knee_adduction_l/accel	/jointset/knee_l/knee_rotation_l/accel	/jointset/ankle_l/ankle_angle_l/accel	/jointset/subtalar_l/subtalar_angle_l/accel	gamma_cid13_p0	gamma_cid13_p1	gamma_cid13_p2	gamma_cid13_p3	gamma_cid13_p4	gamma_cid13_p5	gamma_cid14_p0
0.5	-0.1564598867068224	-0.07473374765271384	0.8387031854260383	0.86595347149963	-0.2980228015861925	-0.189259478030777	-0.959798522024411	0.6406971191199295	0.6406971191199441	-0.07505776229454861	-0.1744481645904455	-0.01744660558139428	-0.009157644376180224	-0.5213851036007709	0.001382137848728627	-0.08980214199825898	0.6932047696074132	-0.01213691680992927	0.05194053999314155	0.001079992875762769	0.1660162852210564	0.1660162852210462	0.009256071000424818	-0.0008517952628153576	2.346503421214145e-05	-0.01306535906343883	-0.3740041870594024	0.03535532560118865	-0.005189855807531809	-0.1055620520104086	0.0794473932844575	0.07961859313683747	0.4089729015671345	-20.30798530538548	-31.62657387546125	5.277746778580355	-2.70355722595539	-741.9920435449067	-88.23373271558511	-19.92020032695143	2.21040479054817	0.3962005340519644	0.6588959519079333	-4.357639764463694	-0.08521902806873374	-0.4680664382570282	-0.6732423631424752	-1.904421555327152	-1.904421555327149	-0.6055178035846434	-0.06928872959707483	0.06805565537501453	-0.0578118880168503	-1.467830738815153e-08	6.591596893199981e-08	7.992629891640109e-08	1.209435040304447e-08	1.021612282420435e-07	1.692745427010939e-08	-7.100403595609147e-09
0.51	-0.1615707069258921	-0.07470087027121543	0.8378362931661233	0.8726798706939343	-0.2981498926028248	-0.1887573239328039	-0.9598132258722144	0.6422665246944869	0.642266524694505	-0.0749997296082151	-0.1744570483965805	-0.01744360012671637	-0.009292974871412493	-0.5014372190130201	0.005122450253088105	-0.08374135615064651	0.6531552558067759	-0.01344276823816666	0.04899477818690565	-0.003302226357024533	0.1482667051353053	0.1482667051353158	0.001932713750422392	-0.0007156967898808826	0.0005095257202186077	-0.01419524978919074	-0.375917367259068	0.03697604099430084	-0.00508429376259563	-0.1016052376752485	0.0744445170539919	0.07926890434375954	0.4092012443454498	-21.77109875924917	-31.25533078442836	5.260603208063857	-1.547358052645843	-739.4178886545562	-87.00950417878828	-19.87356839586143	1.788239229312674	0.3523166505901442	0.5549355545230088	-3.666576574706647	-0.1775113361857708	-0.1321543251832433	-0.2129312917488607	-1.649945435831685	-1.649945435828549	-0.8583894810772509	0.08645751945602516	0.02866796615496438	-0.1697740610353576	-9.189799887100554e-09	7.028433717776728e-08	4.550516993324108e-08	1.443088467319219e-08	1.012551650201137e-07	7.196308238085646e-09	-4.53701805725422e-10
0.52	-0.1665017965117984	-0.07463271575428074	0.8370250618953515	0.8790381808728658	-0.2982948907609347	-0.1882694921075668	-0.9598501958300135	0.6436704906280585	0.6436704906280812	-0.07502745945346173	-0.1744582915412435	-0.01743777672701968	-0.009445443553138316	-0.4854389769683056	0.008437564935986075	-0.07866994416962814	0.6195869665324261	-0.01571834510578929	0.0490760854456164	-0.003373229125896173	0.1329283570242502	0.1329283570242814	-0.00789643531434891	0.0006763370317462722	0.0005870540438820685	-0.01649299636218421	-0.3778305474587295	0.0385967563874206	-0.004978731717681676	-0.09764842334008907	0.06944164082352686	0.07891921555068981	0.4094295871237664	-23.24322431786416	-30.88405620404658	5.24522120270995	-0.3997904200536012	-736.9868489617536	-85.79861448200026	-19.83138283517882	1.420476281941029	0.3111609897594383	0.4610211785890729	-3.061394859206108	-0.2791641159457372	0.1373473747322773	0.1890009296405968	-1.422175160388005	-1.422175160387994	-1.106676166538337	0.1818983401414795	-0.01365081709390318	-0.2913830574652261	-1.894823335842977e-08	4.787437205058996e-08	1.685371605254405e-08	1.037899019567978e-08	7.77445320477526e-08	1.455144412749403e-08	-6.595882573453991e-09
0.53	-0.1712860963647912	-0.07453339288114155	0.836260797440724	0.885084751630193	-0.2984653580373162	-0.1877728277192248	-0.9598745605150775	0.6449312536077312	0.6449312536077459	-0.07515906832740717	-0.1744432693578415	-0.01743232165439211	-0.009624150421053409	-0.4714513047922054	0.01137057885088951	-0.07423298810161438	0.5900086920655948	-0.01832012990410101	0.05003257764647224	-0.001575658211579749	0.119461846773617	0.1194618467736265	-0.01812282308836806	0.002129990567154756	0.0005320791808160393	-0.01917973364196385	-0.379490491715542	0.04068267637622554	-0.004943360772495918	-0.09359552272261665	0.06402455751369923	0.07858774244265504	0.4087732564987743	-24.86932816185297	-30.49965332248155	5.234509330850688	0.9554997586642873	-734.8013698040028	-84.63903689360252	-19.79279633373909	1.383362370912902	0.275908615745472	0.4275396980257372	-2.863820189716165	-0.2424420136679553	0.04117206218390371	0.1637426235587383	-1.273245813583535	-1.27324581358673	-0.9352364537209785	0.09738136655567518	0.002792340590956835	-0.2470278464808147	-2.295025938212803e-08	3.237978121804713e-08	2.664433630840661e-09	9.326779817909564e-09	5.851501753304118e-08	1.613774148768826e-08	-9.073053146900644e-09
0.54	-0.1759314295589291	-0.07440643246417505	0.8355394039222003	0.8908439843529947	-0.2986601944320572	-0.1872733240249889	-0.9598832280007452	0.6460644801136597	0.6460644801136664	-0.07538386435327882	-0.1744196541378209	-0.01742657369807092	-0.009827666418415386	-0.4576456451973686	0.01396507370144475	-0.07009575694887563	0.5621193596269878	-0.02059216877817995	0.04964394662419658	-0.0002337892480036918	0.1074210622756818	0.1074210622756697	-0.02653386569787901	0.002394944355168997	0.0006456307779035119	-0.02145482225160458	-0.3811504359723506	0.04276859636503864	-0.004907989827337894	-0.08954262210514641	0.05860747420387129	0.0782562693346289	0.4081169258737836	-26.50257589586861	-30.11519780081002	5.225157925360597	2.301775008523736	-732.7277886121498	-83.49043428394864	-19.75758378735285	1.384073765688509	0.2434571768895836	0.40107619553403	-2.723606453561148	-0.2132149310991408	-0.1316772698940523	0.09786053949252006	-1.137030009848435	-1.137030009848435	-0.7436071336366243	-0.05584160933735766	0.02005447493648961	-0.209053323437507	-2.058349418717069e-08	2.453624279658934e-08	4.475851546747461e-09	1.159336886964139e-08	4.402205960977202e-08	1.134149409215613e-08	-7.495318824545979e-09
0.55	-0.1804385354742769	-0.07425517310183652	0.8348583514842564	0.8963300004760769	-0.2988761105651867	-0.1867843326161236	-0.9598824255191317	0.6470821537476497	0.6470821537476669	-0.07568455084659813	-0.1743987604036982	-0.01741962666511676	-0.01005214828555006	-0.4437044735850855	0.01623482403016911	-0.06611917451184272	0.5350989394080733	-0.0225400226147647	0.04797791350559522	0.0001578794866338086	0.09612839072567833	0.09612839072567977	-0.03341028378783518	0.001671447418606604	0.0006939438809151582	-0.02340390429041917	-0.3825719679554188	0.04449385996378894	-0.004837658854799573	-0.08624583498081972	0.05373424626574694	0.0780967783899032	0.4073400834805533	-28.00621788568802	-29.82129850060972	5.222443496002971	3.71859901969257	-731.3309563752182	-82.65236365066453	-19.72577282599714	1.40979667758956	0.2109403159234029	0.3952899102676649	-2.688999987631815	-0.1779177544813003	-0.2105278332269923	-0.02564087211122765	-1.123175470164093	-1.12317547016198	-0.6306830268834176	-0.09745680927295564	-0.01025856092378296	-0.1821919949922562	-1.422247789626022e-08	2.437796518974276e-08	-6.205547451821255e-09	1.286334918909964e-08	3.846542329425038e-08	7.140565007510998e-09	-2.952702496445459e-09
0.5600000000000001	-0.1848040981097842	-0.07408277496519845	0.8342169329991787	0.9015462643606564	-0.2991099746655874	-0.1863172938385206	-0.9598847985326807	0.6479873427176204	0.6479873427176486	-0.07604820629686912	-0.1743884722536271	-0.01741369215888383	-0.01029499224325037	-0.429336989229145	0.01819282856135271	-0.0621689663756291	0.5081689119261572	-0.02418176223308086	0.04525342037164355	-0.0008688882811555615	0.08492412947216391	0.08492412947217919	-0.03912765708612457	0.0002738275437533602	0.0004431254276333891	-0.0251272403647883	-0.3839934999384825	0.04621912356254811	-0.004767327882291663	-0.08294904785649618	0.04886101832762165	0.07793728744518662	0.4065632410873249	-29.51623569346052	-29.5272122100416	5.220760979973631	5.1301279702849	-730.0332868481287	-81.8208307514905	-19.69751775757353	1.469336314420131	0.1811080173812689	0.3958013353701418	-2.705527906161354	-0.1519920874453876	-0.3433692729641335	-0.1858267609928342	-1.119347950550641	-1.119347950550591	-0.5117981753031997	-0.1906661969955181	-0.03977183632242104	-0.1639041305484548	-3.068360290206151e-09	3.344200056042935e-08	-3.18783267477601e-08	1.293739902982961e-08	4.363237290802544e-08	3.654017895930225e-09	5.147772238549972e-09
